<?xml version="1.0" standalone="no"?>
<!DOCTYPE svg PUBLIC "-//W3C//DTD SVG 20010904//EN"
 "http://www.w3.org/TR/2001/REC-SVG-20010904/DTD/svg10.dtd">
<svg version="1.0" xmlns="http://www.w3.org/2000/svg"
 width="700.000000pt" height="700.000000pt" viewBox="0 0 700.000000 700.000000"
 preserveAspectRatio="xMidYMid meet">
<metadata>
Created by potrace 1.14, written by Peter Selinger 2001-2017
</metadata>
<g transform="translate(0.000000,700.000000) scale(0.100000,-0.100000)"
fill="#000000" stroke="none">
<path d="M455 5602 c-4 -5 78 -168 165 -327 15 -27 65 -122 111 -210 45 -88
107 -205 136 -260 30 -55 69 -131 89 -170 19 -38 52 -101 73 -140 20 -38 71
-135 113 -215 41 -80 93 -179 115 -220 22 -41 68 -129 103 -195 34 -66 82
-156 105 -200 23 -44 73 -138 110 -210 38 -71 79 -150 91 -174 l24 -43 -61
-117 c-117 -222 -167 -317 -244 -466 -43 -82 -95 -181 -115 -220 -21 -38 -75
-142 -120 -230 -45 -88 -99 -191 -120 -230 -21 -38 -77 -146 -125 -240 -48
-93 -100 -192 -115 -220 -15 -27 -64 -122 -110 -210 -46 -88 -100 -193 -121
-232 l-38 -73 434 0 435 0 21 47 c30 68 61 136 102 223 59 129 88 192 137 300
26 58 61 134 78 170 16 36 40 88 52 115 13 28 60 131 105 230 46 99 102 222
125 273 l42 93 -1 719 -1 718 -41 94 c-60 135 -267 610 -304 698 -32 75 -164
378 -190 435 -8 17 -53 120 -100 230 -48 110 -93 214 -101 231 l-14 30 -420 0
c-231 0 -423 -2 -425 -4z"/>
<path d="M3021 5526 c-92 -196 -193 -410 -245 -520 -31 -65 -56 -119 -56 -121
0 -1 -29 -63 -64 -136 -60 -128 -89 -189 -161 -344 -18 -38 -52 -110 -75 -160
-23 -49 -58 -123 -77 -164 l-35 -75 0 -713 0 -713 112 -268 c62 -147 134 -319
161 -382 27 -63 125 -297 218 -520 l170 -405 436 -3 436 -2 -49 92 c-27 51
-82 156 -122 233 -40 77 -89 172 -110 210 -21 39 -75 142 -120 230 -46 88
-101 194 -123 235 -21 41 -75 145 -119 230 -44 85 -99 191 -123 235 -23 44
-75 143 -115 220 -82 158 -145 278 -232 443 -40 76 -57 117 -50 125 5 7 49 89
97 182 48 94 105 202 125 240 20 39 66 124 100 190 35 66 83 156 106 200 23
44 70 134 104 200 34 66 81 156 105 200 23 44 67 127 97 185 31 58 78 148 106
200 73 141 141 270 212 405 34 66 89 170 121 231 33 61 59 113 59 116 0 2
-192 5 -426 5 l-426 0 -37 -81z"/>
<path d="M5141 5026 c-320 -320 -581 -585 -581 -589 0 -4 119 -127 264 -272
l264 -265 312 310 c172 171 315 309 317 306 3 -2 4 -794 4 -1760 l-1 -1756
380 0 c209 0 380 3 381 8 4 30 3 4586 -1 4591 -3 4 -175 7 -382 7 l-377 0
-580 -580z"/>
</g>
</svg>
