<svg width="559.0531616210938px" height="131.6px" xmlns="http://www.w3.org/2000/svg" viewBox="-29.526580810546875 9.200000000000003 559.0531616210938 131.6" style="background: rgba(0, 0, 0, 0);" preserveAspectRatio="xMidYMid"><defs><linearGradient id="editing-outline-gradient" x1="-0.41354545764260087" x2="1.4135454576426008" y1="0.09326335692419985" y2="0.9067366430758002"><stop offset="0" stop-color="#ee4208"></stop><stop offset="1" stop-color="#a8b1ff"></stop></linearGradient><filter id="editing-outline" x="-100%" y="-100%" width="300%" height="300%"><feMorphology in="SourceGraphic" operator="dilate" radius="1" result="outline"></feMorphology><feComposite operator="out" in="outline" in2="SourceAlpha"></feComposite></filter></defs><g filter="url(#editing-outline)"><g transform="translate(51.904995918273926, 98.53000068664551)"><path d="M17.06-22.38L4.63-46.06L13.19-46.06L20.69-28.81L20.69-14.50L14.06 0L5.38 0L17.06-22.38ZM30.75-46.06L39.31-46.06L26.88-22.38L38.56 0L29.88 0L23.25-15.81L23.25-30.06L30.75-46.06ZM49.81 0L49.81-46.06L57.44-46.06L57.44 0L49.81 0ZM76.69-25.88L76.69-20.75L60-20.75L60-25.88L76.69-25.88ZM60 0L60-5.69L78.63-5.69L78.63 0L60 0ZM60-46.06L78.63-46.06L78.63-40.38L60-40.38L60-46.06ZM114.56-14.31L114.56-46.06L122.19-46.06L122.19 0L114.56 0L99.06-27.25L99.06-41.63L114.56-14.31ZM96.50 0L88.88 0L88.88-46.06L96.50-46.06L96.50 0ZM181.94-41.81L176.75-37.19L176.75-37.19Q175.31-38.81 173.69-39.63L173.69-39.63L173.69-39.63Q172.06-40.44 170.19-40.56L170.19-40.56L170.19-46.75L170.19-46.75Q177.19-46.44 181.94-41.81L181.94-41.81ZM170.19 0.31L170.19-5.88L170.19-5.88Q172.06-6.06 173.72-6.88L173.72-6.88L173.72-6.88Q175.38-7.69 176.75-9.25L176.75-9.25L181.94-4.69L181.94-4.69Q179.56-2.38 176.63-1.13L176.63-1.13L176.63-1.13Q173.69 0.13 170.19 0.31L170.19 0.31ZM149.94-23.25L149.94-23.25L149.94-23.25Q149.94-28.81 151.28-33.06L151.28-33.06L151.28-33.06Q152.63-37.31 155-40.25L155-40.25L155-40.25Q157.38-43.19 160.59-44.81L160.59-44.81L160.59-44.81Q163.81-46.44 167.63-46.75L167.63-46.75L167.63-40.50L167.63-40.50Q165.56-40.19 163.75-39.09L163.75-39.09L163.75-39.09Q161.94-38 160.56-35.94L160.56-35.94L160.56-35.94Q159.19-33.88 158.41-30.72L158.41-30.72L158.41-30.72Q157.63-27.56 157.56-23.25L157.56-23.25L157.56-23.25Q157.63-18.88 158.41-15.75L158.41-15.75L158.41-15.75Q159.19-12.63 160.56-10.50L160.56-10.50L160.56-10.50Q161.94-8.38 163.78-7.25L163.78-7.25L163.78-7.25Q165.63-6.13 167.63-5.88L167.63-5.88L167.63 0.25L167.63 0.25Q163.81 0 160.59-1.63L160.59-1.63L160.59-1.63Q157.38-3.25 155-6.19L155-6.19L155-6.19Q152.63-9.13 151.28-13.41L151.28-13.41L151.28-13.41Q149.94-17.69 149.94-23.25ZM192.56 0L192.56-46.06L200.06-46.06L200.06 0L192.56 0ZM213.31-18.13L223.81 0L215.88 0L207.19-16.69L207.19-16.69Q207-16.69 206.78-16.66L206.78-16.66L206.78-16.66Q206.56-16.63 206.13-16.63L206.13-16.63L206.13-16.63Q205.69-16.63 204.84-16.63L204.84-16.63L204.84-16.63Q204-16.63 202.63-16.63L202.63-16.63L202.63-22.13L206.88-22.13L206.88-22.13Q208.25-22.13 209.63-22.59L209.63-22.59L209.63-22.59Q211-23.06 212.13-24.13L212.13-24.13L212.13-24.13Q213.25-25.19 213.94-27.09L213.94-27.09L213.94-27.09Q214.63-29 214.63-31.81L214.63-31.81L214.63-31.81Q214.63-32.94 214.31-34.41L214.31-34.41L214.31-34.41Q214-35.88 213.03-37.22L213.03-37.22L213.03-37.22Q212.06-38.56 210.31-39.47L210.31-39.47L210.31-39.47Q208.56-40.38 205.69-40.38L205.69-40.38L202.63-40.38L202.63-46.06L205.81-46.06L205.81-46.06Q208.75-46.06 211.63-45.13L211.63-45.13L211.63-45.13Q214.50-44.19 216.78-42.31L216.78-42.31L216.78-42.31Q219.06-40.44 220.47-37.78L220.47-37.78L220.47-37.78Q221.88-35.13 221.88-31.81L221.88-31.81L221.88-31.81Q221.88-26.81 219.56-23.31L219.56-23.31L219.56-23.31Q217.25-19.81 213.31-18.13L213.31-18.13ZM244.56-15.38L257.31-46.06L265.88-46.06L252.19-18.75L252.19 0L244.56 0L244.56-15.38ZM231.56-46.06L240.13-46.06L247.06-28.13L243.69-19.94L231.56-46.06ZM274.81 0L274.81-46.06L282.31-46.06L282.31 0L274.81 0ZM284.88-46.06L288.06-46.06L288.06-46.06Q291-46.06 293.88-45.13L293.88-45.13L293.88-45.13Q296.75-44.19 299.03-42.31L299.03-42.31L299.03-42.31Q301.31-40.44 302.72-37.78L302.72-37.78L302.72-37.78Q304.13-35.13 304.13-31.81L304.13-31.81L304.13-31.81Q304.13-28.31 302.94-25.47L302.94-25.47L302.94-25.47Q301.75-22.63 299.63-20.69L299.63-20.69L299.63-20.69Q297.50-18.75 294.50-17.69L294.50-17.69L294.50-17.69Q291.50-16.63 287.88-16.63L287.88-16.63L284.88-16.63L284.88-22.13L289.19-22.13L289.19-22.13Q290.56-22.13 291.91-22.59L291.91-22.59L291.91-22.59Q293.25-23.06 294.38-24.13L294.38-24.13L294.38-24.13Q295.50-25.19 296.19-27.09L296.19-27.09L296.19-27.09Q296.88-29 296.88-31.81L296.88-31.81L296.88-31.81Q296.88-32.94 296.56-34.41L296.56-34.41L296.56-34.41Q296.25-35.88 295.28-37.22L295.28-37.22L295.28-37.22Q294.31-38.56 292.56-39.47L292.56-39.47L292.56-39.47Q290.81-40.38 287.94-40.38L287.94-40.38L284.88-40.38L284.88-46.06ZM310.13-46.06L345.19-46.06L345.19-40.94L331.44-40.94L331.44 0L323.88 0L323.88-40.94L310.13-40.94L310.13-46.06ZM353.19-23.25L353.19-23.25L353.19-23.25Q353.19-28.81 354.53-33.09L354.53-33.09L354.53-33.09Q355.88-37.38 358.28-40.34L358.28-40.34L358.28-40.34Q360.69-43.31 363.97-44.91L363.97-44.91L363.97-44.91Q367.25-46.50 371.13-46.75L371.13-46.75L371.13-40.50L371.13-40.50Q369-40.25 367.13-39.19L367.13-39.19L367.13-39.19Q365.25-38.13 363.88-36.06L363.88-36.06L363.88-36.06Q362.50-34 361.69-30.81L361.69-30.81L361.69-30.81Q360.88-27.63 360.81-23.25L360.81-23.25L360.81-23.25Q360.88-18.81 361.69-15.66L361.69-15.66L361.69-15.66Q362.50-12.50 363.91-10.38L363.91-10.38L363.91-10.38Q365.31-8.25 367.19-7.16L367.19-7.16L367.19-7.16Q369.06-6.06 371.13-5.88L371.13-5.88L371.13 0.31L371.13 0.31Q367.31 0.06 364-1.53L364-1.53L364-1.53Q360.69-3.13 358.28-6.09L358.28-6.09L358.28-6.09Q355.88-9.06 354.53-13.38L354.53-13.38L354.53-13.38Q353.19-17.69 353.19-23.25ZM373.63-40.56L373.63-46.75L373.63-46.75Q377.44-46.56 380.72-44.94L380.72-44.94L380.72-44.94Q384-43.31 386.41-40.34L386.41-40.34L386.41-40.34Q388.81-37.38 390.19-33.09L390.19-33.09L390.19-33.09Q391.56-28.81 391.56-23.25L391.56-23.25L391.56-23.25Q391.56-17.69 390.19-13.38L390.19-13.38L390.19-13.38Q388.81-9.06 386.41-6.09L386.41-6.09L386.41-6.09Q384-3.13 380.75-1.53L380.75-1.53L380.75-1.53Q377.50 0.06 373.63 0.31L373.63 0.31L373.63-5.88L373.63-5.88Q375.75-6.13 377.63-7.22L377.63-7.22L377.63-7.22Q379.50-8.31 380.88-10.41L380.88-10.41L380.88-10.41Q382.25-12.50 383.06-15.66L383.06-15.66L383.06-15.66Q383.88-18.81 383.94-23.25L383.94-23.25L383.94-23.25Q383.88-27.69 383.06-30.84L383.06-30.84L383.06-30.84Q382.25-34 380.84-36.09L380.84-36.09L380.84-36.09Q379.44-38.19 377.56-39.28L377.56-39.28L377.56-39.28Q375.69-40.38 373.63-40.56L373.63-40.56Z" fill="url(#editing-outline-gradient)"></path></g></g><style>text {
  font-size: 64px;
  font-family: Arial Black;
  dominant-baseline: central;
  text-anchor: middle;
}</style></svg>