<svg width="193.90625px" height="131.6px" xmlns="http://www.w3.org/2000/svg" viewBox="153.046875 9.200000000000003 193.90625 131.6" style="background: none;" preserveAspectRatio="xMidYMid"><defs><linearGradient id="editing-outline-gradient" x1="-0.39879404629916704" x2="1.398794046299167" y1="0.061628853210922596" y2="0.9383711467890774"><stop offset="0" stop-color="#ee4208"></stop><stop offset="1" stop-color="#a8b1ff"></stop></linearGradient><filter id="editing-outline" x="-100%" y="-100%" width="300%" height="300%"><feMorphology in="SourceGraphic" operator="dilate" radius="2" result="outline"></feMorphology><feComposite operator="out" in="outline" in2="SourceAlpha"></feComposite></filter></defs><g filter="url(#editing-outline)"><g transform="translate(186.59000873565674, 98.03000068664551)"><path d="M17.06-22.38L4.63-46.06L13.19-46.06L20.69-28.81L20.69-14.50L14.06 0L5.38 0L17.06-22.38ZM30.75-46.06L39.31-46.06L26.88-22.38L38.56 0L29.88 0L23.25-15.81L23.25-30.06L30.75-46.06ZM49.81 0L49.81-46.06L57.44-46.06L57.44 0L49.81 0ZM76.69-25.88L76.69-20.75L60-20.75L60-25.88L76.69-25.88ZM60 0L60-5.69L78.63-5.69L78.63 0L60 0ZM60-46.06L78.63-46.06L78.63-40.38L60-40.38L60-46.06ZM114.56-14.31L114.56-46.06L122.19-46.06L122.19 0L114.56 0L99.06-27.25L99.06-41.63L114.56-14.31ZM96.50 0L88.88 0L88.88-46.06L96.50-46.06L96.50 0Z" fill="url(#editing-outline-gradient)"></path></g></g><style>text {
  font-size: 64px;
  font-family: Arial Black;
  dominant-baseline: central;
  text-anchor: middle;
}</style></svg>